Coordinates
version=1
nRows=17
nColumns=24
inDegrees=yes

Units are S.I. units (second, meters, Newtons, ...)
Angles are in degrees.

endheader
time	pelvis_tilt	pelvis_list	pelvis_rotation	pelvis_tx	pelvis_ty	pelvis_tz	hip_flexion_r	hip_adduction_r	hip_rotation_r	knee_angle_r	ankle_angle_r	subtalar_angle_r	mtp_angle_r	hip_flexion_l	hip_adduction_l	hip_rotation_l	knee_angle_l	ankle_angle_l	subtalar_angle_l	mtp_angle_l	lumbar_extension	lumbar_bending	lumbar_rotation
      1.15850000	     -0.99527478	      1.38519332	     -3.08960386	      0.08657258	      1.01119028	      0.29511057	     19.76820156	     -5.60140269	     -7.73483473	    -68.54322642	      1.69097130	    -11.78582875	      1.63487676	     14.69309483	      2.44057653	     -6.96427534	    -18.05869429	      4.19621331	    -11.86289784	    -12.54252672	    -11.05236596	     -3.18312498	      1.77863679
      1.16266667	     -0.99446021	      1.23777409	     -3.00094491	      0.09159309	      1.01217328	      0.29485417	     20.29851884	     -5.35731141	     -7.80030308	    -68.19749177	      2.05597017	    -11.69510462	      1.59026604	     14.25455155	      2.34879781	     -6.84858777	    -17.83132218	      4.30632885	    -11.81998039	    -12.55990395	    -11.11389699	     -3.00033837	      1.68586929
      1.16683333	     -0.97064650	      1.06276429	     -2.85596140	      0.09665743	      1.01322202	      0.29447447	     20.75326543	     -5.11763535	     -7.94708232	    -67.73999031	      2.35151130	    -11.54233280	      1.48556022	     13.78695961	      2.24391897	     -6.66951666	    -17.59951208	      4.46335401	    -11.71859744	    -12.60158805	    -11.20083447	     -2.77351498	      1.50645199
      1.17100000	     -0.92430109	      0.89986783	     -2.73326389	      0.10167345	      1.01427419	      0.29412005	     21.17834209	     -4.88646389	     -8.08208708	    -67.22597752	      2.65693697	    -11.46838676	      1.34168702	     13.28841422	      2.14975253	     -6.50512024	    -17.34009072	      4.55076381	    -11.69744744	    -12.66511036	    -11.32371254	     -2.55014199	      1.35319239
      1.17516667	     -0.97094844	      0.77625689	     -2.68589307	      0.10667900	      1.01513374	      0.29398865	     21.71897653	     -4.64883420	     -8.12363044	    -66.67489999	      2.93468976	    -11.40709484	      1.31017977	     12.88195507	      2.06529083	     -6.42490299	    -17.06511276	      4.60299947	    -11.70987790	    -12.68152046	    -11.32475957	     -2.41002974	      1.30974708
      1.17933333	     -0.95702992	      0.60173047	     -2.56231203	      0.11172384	      1.01611351	      0.29363262	     22.13047162	     -4.41194288	     -8.27938394	    -66.00571261	      3.16604936	    -11.27122995	      1.21994483	     12.41052168	      1.95152150	     -6.26758778	    -16.79365216	      4.72812378	    -11.64025342	    -12.72538592	    -11.40127810	     -2.15928520	      1.18992143
      1.18350000	     -0.92308041	      0.43958197	     -2.45224159	      0.11677370	      1.01711666	      0.29332961	     22.49965958	     -4.18216477	     -8.42755496	    -65.26481602	      3.37972706	    -11.19453595	      1.10873160	     11.90431290	      1.84853054	     -6.11255291	    -16.48939664	      4.79287582	    -11.64580400	    -12.78360829	    -11.49489884	     -1.95404640	      1.04992480
      1.18766667	     -0.98533755	      0.32960137	     -2.40615695	      0.12180415	      1.01788002	      0.29321782	     22.98914984	     -3.96825419	     -8.49561412	    -64.51063301	      3.63061153	    -11.15057633	      1.07659959	     11.50238086	      1.77247318	     -6.04233591	    -16.18290135	      4.81904468	    -11.65914181	    -12.80277334	    -11.46826986	     -1.82483116	      1.00126555
      1.19183333	     -0.93085535	      0.13871203	     -2.24933669	      0.12689347	      1.01889544	      0.29277869	     23.26467782	     -3.74632542	     -8.72732770	    -63.60635485	      3.78472544	    -11.08285789	      0.97230316	     10.97308469	      1.64912063	     -5.84891121	    -15.87518592	      4.92722657	    -11.62514103	    -12.86003565	    -11.58243392	     -1.55664079	      0.85045711
      1.19600000	     -1.00330472	      0.04043002	     -2.21672896	      0.13193311	      1.01958383	      0.29268502	     23.72251418	     -3.54542891	     -8.79113471	    -62.72483151	      3.99916146	    -11.03302129	      0.94211326	     10.57209897	      1.58278446	     -5.78843505	    -15.54412908	      4.93775060	    -11.65614809	    -12.87955019	    -11.54423588	     -1.43653428	      0.79024440
      1.20016667	     -0.92146320	     -0.14882965	     -2.06127438	      0.13704429	      1.02059652	      0.29223823	     23.91520721	     -3.33518440	     -9.04028661	    -61.68036856	      4.10173097	    -10.99306249	      0.85104523	     10.00091907	      1.46053807	     -5.59098604	    -15.20832122	      5.03613632	    -11.65945727	    -12.93126208	    -11.68661243	     -1.15902990	      0.64909044
      1.20433333	     -1.00591733	     -0.22806372	     -2.03302667	      0.14210337	      1.02119354	      0.29216600	     24.34019243	     -3.15836800	     -9.11061185	    -60.68250870	      4.32355934	    -10.96047224	      0.82339737	      9.60724556	      1.41054010	     -5.54196837	    -14.86112096	      5.02728311	    -11.69091763	    -12.94980117	    -11.62972780	     -1.05870361	      0.58185501
      1.20850000	     -0.91141570	     -0.40531700	     -1.87242148	      0.14721377	      1.02216478	      0.29172168	     24.46874873	     -2.96606636	     -9.37001323	    -59.51115474	      4.40083584	    -10.96294982	      0.72912249	      9.01406745	      1.30087977	     -5.31972684	    -14.49997125	      5.10528378	    -11.72112141	    -13.00361363	    -11.79055217	     -0.79790205	      0.42426739
      1.21266667	     -1.01444546	     -0.46751995	     -1.84838954	      0.15230686	      1.02264898	      0.29165924	     24.86475721	     -2.81174235	     -9.44401556	    -58.39800419	      4.60420351	    -10.92269127	      0.70342863	      8.63771802	      1.26599750	     -5.28760580	    -14.14935801	      5.10360827	    -11.76054173	    -13.02093134	    -11.70077779	     -0.71351006	      0.36166578
      1.21683333	     -0.90810433	     -0.63227668	     -1.68683777	      0.15742965	      1.02356248	      0.29122473	     24.92971180	     -2.63812257	     -9.71317605	    -57.10697975	      4.66194423	    -10.94909722	      0.60794974	      8.02724736	      1.16551782	     -5.06700469	    -13.77504641	      5.17134252	    -11.80855162	    -13.07687233	    -11.87063649	     -0.46537780	      0.20614684
      1.22100000	     -1.03092977	     -0.67185864	     -1.67055002	      0.16253989	      1.02392393	      0.29120605	     25.30065109	     -2.50518307	     -9.77847787	    -55.88584277	      4.85251948	    -10.90668912	      0.58291211	      7.66905803	      1.15031672	     -5.04259149	    -13.41876001	      5.17330658	    -11.85130970	    -13.09369091	    -11.75255863	     -0.40655696	      0.14590213
      1.22516667	     -0.95281138	     -0.81423256	     -1.51987583	      0.16769170	      1.02469453	      0.29080823	     25.35072373	     -2.35204728	    -10.03914644	    -54.49014383	      4.88814209	    -10.95770771	      0.49115095	      7.08921443	      1.06506456	     -4.85296694	    -13.04697779	      5.23952903	    -11.91821187	    -13.14687073	    -11.87641609	     -0.18097890	      0.00447146
